<mxfile host="Electron" modified="2023-07-18T18:40:50.464Z" agent="Mozilla/5.0 (Windows NT 10.0; Win64; x64) AppleWebKit/537.36 (KHTML, like Gecko) draw.io/21.6.1 Chrome/112.0.5615.204 Electron/24.6.1 Safari/537.36" etag="MmXbw45xj9EFnSUfndBH" version="21.6.1" type="device">
  <diagram name="ページ1" id="Hz07zLPl0DW_OSaEmsmy">
    <mxGraphModel dx="1102" dy="654" grid="1" gridSize="10" guides="1" tooltips="1" connect="1" arrows="1" fold="1" page="1" pageScale="1" pageWidth="827" pageHeight="1169" math="0" shadow="0">
      <root>
        <mxCell id="0" />
        <mxCell id="1" parent="0" />
        <mxCell id="pN5xHfW9ArIk6L_gz5f8-1" value="" style="triangle;whiteSpace=wrap;html=1;direction=south;" vertex="1" parent="1">
          <mxGeometry x="80" y="180" width="80" height="60" as="geometry" />
        </mxCell>
        <mxCell id="pN5xHfW9ArIk6L_gz5f8-3" value="" style="triangle;whiteSpace=wrap;html=1;direction=south;" vertex="1" parent="1">
          <mxGeometry x="640" y="180" width="80" height="60" as="geometry" />
        </mxCell>
        <mxCell id="pN5xHfW9ArIk6L_gz5f8-4" value="" style="endArrow=none;html=1;rounded=0;" edge="1" parent="1">
          <mxGeometry width="50" height="50" relative="1" as="geometry">
            <mxPoint x="120" y="560" as="sourcePoint" />
            <mxPoint x="119.5" y="180" as="targetPoint" />
          </mxGeometry>
        </mxCell>
        <mxCell id="pN5xHfW9ArIk6L_gz5f8-5" value="" style="endArrow=none;html=1;rounded=0;" edge="1" parent="1">
          <mxGeometry width="50" height="50" relative="1" as="geometry">
            <mxPoint x="680" y="560" as="sourcePoint" />
            <mxPoint x="679.5" y="180" as="targetPoint" />
          </mxGeometry>
        </mxCell>
        <mxCell id="pN5xHfW9ArIk6L_gz5f8-6" value="" style="endArrow=classic;startArrow=classic;html=1;rounded=0;" edge="1" parent="1">
          <mxGeometry width="50" height="50" relative="1" as="geometry">
            <mxPoint x="120" y="400" as="sourcePoint" />
            <mxPoint x="680" y="400" as="targetPoint" />
          </mxGeometry>
        </mxCell>
      </root>
    </mxGraphModel>
  </diagram>
</mxfile>
